<?xml version="1.0" standalone="no"?>
<!DOCTYPE svg PUBLIC "-//W3C//DTD SVG 20010904//EN"
 "http://www.w3.org/TR/2001/REC-SVG-20010904/DTD/svg10.dtd">
<svg version="1.0" xmlns="http://www.w3.org/2000/svg"
 width="958.000000pt" height="250.000000pt" viewBox="0 0 958.000000 250.000000"
 preserveAspectRatio="xMidYMid meet">

<g transform="translate(0.000000,250.000000) scale(0.100000,-0.100000)"
fill="#000000" stroke="none">
<path d="M0 1250 l0 -1250 1929 0 c1061 0 1931 3 1933 8 2 4 60 61 128 127 69
66 193 185 275 265 83 80 209 201 280 269 72 69 189 182 261 253 l131 128 736
0 c405 0 737 -2 737 -5 0 -2 -69 -105 -153 -227 -84 -123 -211 -308 -282 -413
-70 -104 -161 -238 -202 -297 l-75 -108 1941 0 1941 0 -1 1078 c0 610 -4 1068
-9 1057 -5 -11 -9 -32 -9 -48 -2 -55 -51 -214 -99 -317 -28 -60 -100 -179
-139 -228 -60 -76 -215 -225 -283 -273 -107 -74 -155 -101 -295 -164 -123 -56
-327 -101 -510 -113 -233 -15 -586 34 -602 84 -4 12 50 34 132 54 305 75 523
166 732 306 267 179 445 420 512 694 16 69 32 227 26 266 -3 19 -7 50 -10 69
l-6 35 -947 0 -947 -1 -40 -56 c-22 -31 -80 -107 -128 -170 l-88 -113 -382 0
c-326 0 -379 2 -367 14 8 8 112 80 230 161 118 81 219 151 224 156 6 5 -1376
9 -3282 9 l-3292 0 0 -1250z"/>
<path d="M9558 2453 c8 -77 21 -86 22 -15 0 46 -4 62 -14 62 -10 0 -12 -11 -8
-47z"/>
</g>
</svg>
